<?xml version="1.0" encoding="UTF-8" standalone="no"?>
<svg
   xmlns:svg="http://www.w3.org/2000/svg"
   xmlns="http://www.w3.org/2000/svg"
   width="100%" height="100%" viewBox="0 0 100 100">
  <path
     d="m 29.376381,4.4921993 c 2.100361,-1.3207738 4.536571,-1.6635834 6.777884,-1.1519793 2.227392,0.5081238 4.259887,1.8584802 5.580661,3.932739 0.02262,0.029583 0.04176,0.060905 0.05917,0.093968 1.294672,2.0899202 1.630521,4.505248 1.122397,6.72916 -0.508124,2.227392 -1.85848,4.259887 -3.932739,5.580661 -0.02958,0.02262 -0.06091,0.04176 -0.09397,0.05917 -2.08992,1.294672 -4.505248,1.630521 -6.72916,1.122397 -2.243054,-0.511604 -4.28947,-1.877622 -5.610244,-3.977983 v 0 C 25.229603,14.779966 24.886794,12.343756 25.398398,10.104183 25.910002,7.8611297 27.27602,5.8147133 29.376381,4.4939395 Z M 14.364107,87.664409 c 0.02262,0.227959 -0.142693,0.431557 -0.370652,0.455919 -0.22796,0.02262 -0.431557,-0.142692 -0.455919,-0.370652 l -0.0087,-0.07831 c -0.189677,-1.654882 -0.842233,-2.813822 -1.778434,-3.516843 -0.93794,-0.706501 -2.175187,-0.969263 -3.5272835,-0.826571 -0.013921,0.0017 -0.010441,0.0017 -0.067866,0.0087 -0.2279597,0.0261 -0.4332974,-0.137472 -0.4593996,-0.365432 -0.026102,-0.22796 0.1374718,-0.433297 0.3654315,-0.459399 l 0.078307,-0.0087 c 1.5556941,-0.163574 2.9947976,0.151393 4.1084936,0.990145 1.115437,0.838752 1.889803,2.187369 2.107322,4.085872 l 0.0087,0.08875 z M 87.051912,59.618411 c 0.102669,-0.205338 0.353251,-0.287125 0.556848,-0.184456 0.205338,0.102669 0.287125,0.353251 0.184456,0.556848 l -0.03654,0.07135 c -0.739564,1.491309 -0.81961,2.820784 -0.415896,3.920558 0.405455,1.101515 1.299892,1.994212 2.509297,2.608485 l 0.06264,0.03132 c 0.205338,0.100929 0.290605,0.34977 0.187936,0.555108 -0.100928,0.205337 -0.34977,0.290605 -0.555108,0.187936 l -0.06961,-0.0348 c -1.39734,-0.708241 -2.43621,-1.755811 -2.916491,-3.064404 -0.480281,-1.308593 -0.396754,-2.860807 0.450699,-4.574855 l 0.04002,-0.07831 z M 33.676291,17.4946 c -0.229699,0.007 -0.421116,-0.172275 -0.428076,-0.401975 -0.007,-0.229699 0.172274,-0.421116 0.401974,-0.428076 l 0.08005,-0.0035 c 1.661843,-0.06961 2.866027,-0.636895 3.636914,-1.520891 0.770886,-0.883996 1.124137,-2.098621 1.080633,-3.455938 l -0.0035,-0.07135 c -0.0087,-0.2297 0.168795,-0.421116 0.398495,-0.431557 0.2297,-0.0087 0.421116,0.168794 0.431557,0.398494 l 0.0035,0.07657 c 0.05047,1.564395 -0.368911,2.979137 -1.28423,4.028447 -0.917059,1.051051 -2.31788,1.724489 -4.228565,1.804536 l -0.08701,0.0035 z m 66.033473,42.663258 c 0.622976,2.401407 0.214038,4.827176 -0.950122,6.809207 -1.165901,1.98203 -3.087026,3.520323 -5.486693,4.145037 -2.401407,0.622974 -4.827176,0.214038 -6.809207,-0.950122 -1.982031,-1.165901 -3.520324,-3.087026 -4.145038,-5.486693 -0.622973,-2.401407 -0.214038,-4.827176 0.950122,-6.809207 1.165901,-1.982031 3.087026,-3.520323 5.486693,-4.145037 2.401407,-0.622974 4.827176,-0.214039 6.809207,0.950122 1.982031,1.1659 3.520324,3.087026 4.145038,5.486693 z m -2.093401,6.137509 c 0.993626,-1.689686 1.341656,-3.758724 0.80917,-5.805141 -0.530746,-2.046416 -1.842819,-3.683897 -3.530765,-4.675783 -1.689685,-0.993625 -3.758724,-1.341655 -5.80514,-0.809169 -2.046416,0.530745 -3.683897,1.842818 -4.675783,3.530764 -0.993626,1.689685 -1.341656,3.758724 -0.80917,5.80514 0.530746,2.046417 1.842819,3.683898 3.530765,4.675783 1.689685,0.993626 3.758724,1.341656 5.80514,0.80917 2.046416,-0.530746 3.683898,-1.842819 4.675783,-3.530764 z M 80.352335,65.185151 c 0.292345,1.122397 0.746524,2.159526 1.332955,3.104428 0.616013,0.993625 1.379939,1.886322 2.253494,2.66765 0.475061,0.426336 0.779587,0.762185 0.967523,1.197223 0.191417,0.441998 0.233181,0.910098 0.177496,1.583536 -0.438518,5.303977 -2.556281,10.005863 -5.935652,13.755886 -3.421135,3.798747 -8.135201,6.61431 -13.705421,8.082997 -0.01044,0.0035 -0.02088,0.0052 -0.03132,0.007 l -0.05394,0.01566 c -1.538292,0.400234 -3.01916,0.180975 -4.214643,-0.483762 -1.204184,-0.669958 -2.114282,-1.792355 -2.500595,-3.194915 v 0 c -0.0052,-0.01914 -0.01218,-0.04524 -0.02088,-0.07831 -0.0261,-0.102669 0.0052,0.02784 -0.01392,-0.04698 -0.354991,-1.421703 -0.10789,-2.857327 0.624713,-4.042369 0.725643,-1.172861 1.924606,-2.0934 3.47682,-2.497115 0.09745,-0.0261 -0.01044,0.0017 0.05569,-0.01566 0.01392,-0.0035 0.02784,-0.007 0.04176,-0.0087 v 0 c 4.136336,-1.073673 7.402598,-3.652575 9.379408,-6.96234 1.97333,-3.306285 2.658949,-7.343433 1.632261,-11.342298 l -0.01044,-0.04176 v 0 l -0.01044,-0.04176 v 0 C 72.747879,62.85161 70.184639,59.656694 66.852251,57.728608 63.516384,55.798782 59.40789,55.137525 55.271553,56.211197 l -0.0435,0.01044 v 0.0017 c -0.08179,0.02262 0.05047,-0.01392 -0.05568,0.01392 -1.552213,0.403714 -3.045262,0.182715 -4.249446,-0.488982 -1.216365,-0.678659 -2.131684,-1.813237 -2.512776,-3.229719 -0.02088,-0.07483 0.01914,0.06787 -0.01044,-0.04698 -0.007,-0.0261 -0.01392,-0.0522 -0.01914,-0.07831 -0.34455,-1.411261 -0.09571,-2.834704 0.629934,-4.005825 0.720422,-1.16416 1.908945,-2.075999 3.447237,-2.476233 0.02784,-0.007 0.05569,-0.01392 0.08701,-0.02262 v -0.0017 c 5.578921,-1.426923 11.065614,-1.259868 15.904971,0.393274 4.776712,1.632261 8.914788,4.708846 11.880004,9.130567 0.377613,0.563809 0.570769,0.993626 0.617753,1.470427 0.04698,0.473321 -0.05394,0.913579 -0.261022,1.513931 -0.384573,1.111956 -0.617753,2.263935 -0.671698,3.428095 -0.05221,1.110216 0.05568,2.237833 0.34629,3.36023 z m 0.203597,3.800488 c -0.654296,-1.054531 -1.16242,-2.213471 -1.487828,-3.468119 -0.325408,-1.254648 -0.447218,-2.514517 -0.388053,-3.755244 0.0609,-1.301632 0.318447,-2.575422 0.739564,-3.798748 0.147912,-0.428076 0.222739,-0.716941 0.198377,-0.951862 -0.02262,-0.23144 -0.147913,-0.487242 -0.400235,-0.861374 C 76.421336,51.980893 72.51818,49.080063 68.014671,47.54003 63.418935,45.970415 58.193265,45.815541 52.864926,47.178079 v -0.0017 l -0.007,0.0017 c -0.02262,0.0052 -0.04698,0.01218 -0.07309,0.01914 -1.192003,0.309747 -2.105582,1.004067 -2.651989,1.888063 -0.541187,0.875296 -0.727383,1.940267 -0.46984,2.998279 l 0.01392,0.05743 c 0.02262,0.08701 -0.0174,-0.06613 0.01044,0.03654 0.285384,1.059751 0.967523,1.907204 1.874141,2.413588 0.917059,0.511604 2.067298,0.676918 3.271482,0.363691 0.07309,-0.01914 -0.06961,0.0174 0.04524,-0.01392 v 0.0017 l 0.05221,-0.01392 c 4.489587,-1.165901 8.953071,-0.445479 12.579544,1.653142 3.629953,2.100361 6.421153,5.578921 7.564432,9.925816 v 0 l 0.01218,0.04698 v 0 l 0.01218,0.04698 c 1.117176,4.353855 0.372392,8.751214 -1.778433,12.351585 -2.147345,3.59689 -5.695511,6.398531 -10.185098,7.564432 v 0 c -0.0174,0.0052 -0.0348,0.01044 -0.05221,0.01566 -0.09919,0.02436 0.01914,-0.007 -0.04524,0.01044 -1.204183,0.313227 -2.128203,1.016248 -2.679831,1.908945 -0.544667,0.882256 -0.729122,1.955928 -0.462879,3.02264 0.0261,0.102669 -0.01044,-0.03828 0.0087,0.03654 l 0.01566,0.05742 v 0 0.0017 c 0.288865,1.047571 0.967523,1.886323 1.867181,2.385746 0.908358,0.506384 2.044676,0.668218 3.236679,0.358471 l 0.0435,-0.01044 c 0.01218,-0.0035 0.02436,-0.007 0.03654,-0.01044 5.314419,-1.402561 9.805746,-4.080652 13.056346,-7.687983 3.186215,-3.535984 5.182167,-7.971627 5.598062,-12.976298 0.03828,-0.454179 0.02262,-0.737824 -0.06786,-0.948382 -0.09397,-0.217519 -0.299306,-0.435037 -0.635155,-0.734343 -0.965783,-0.864855 -1.811496,-1.855 -2.497115,-2.958255 z M 4.0136946,95.387194 C 1.9481365,94.014216 0.63258315,91.934737 0.178404,89.679502 -0.27577515,87.426008 0.12793965,84.998499 1.4991778,82.932941 2.8721562,80.867383 4.9516354,79.551829 7.20861,79.09591 c 2.2534943,-0.454179 4.681003,-0.05046 6.746562,1.320774 2.065558,1.372978 3.381111,3.452458 3.83703,5.709432 0.454179,2.253494 0.05046,4.681004 -1.320774,6.746562 v 0 c -1.372978,2.065558 -3.452457,3.381111 -5.707692,3.83529 -2.2534938,0.454179 -4.681003,0.05047 -6.7465611,-1.320774 h -0.00174 z M 1.478296,89.41848 c 0.3845732,1.907204 1.4947889,3.668236 3.236679,4.839357 0.022622,0.01392 0.045244,0.02784 0.066126,0.0435 1.7558114,1.151979 3.8109286,1.491308 5.718133,1.106735 1.907204,-0.384573 3.668236,-1.494789 4.839357,-3.236679 0.01392,-0.02262 0.02784,-0.04524 0.0435,-0.06613 1.151979,-1.755811 1.491308,-3.810928 1.106735,-5.718132 C 16.100776,84.467753 14.98012,82.69628 13.219088,81.5269 11.456316,80.355779 9.3872778,80.011229 7.4661522,80.399282 5.5467667,80.787336 3.775294,81.907992 2.6059132,83.669024 1.4347923,85.431796 1.0902426,87.500835 1.478296,89.42196 Z M 15.079308,78.725258 c -0.967523,-0.642115 -1.997692,-1.111956 -3.060923,-1.423443 -1.124137,-0.328888 -2.2882976,-0.485501 -3.4611588,-0.485501 -0.6403752,0 -1.091074,-0.04873 -1.5191509,-0.245362 C 6.6030378,76.370835 6.2584881,76.048907 5.8495528,75.507721 2.6389761,71.265235 1.0798017,66.351051 1.0937229,61.304617 1.1076441,56.193796 2.7381647,50.952464 5.9034975,46.14443 h -0.00174 c 0.013921,-0.02262 0.031323,-0.04872 0.052204,-0.08005 0.8805159,-1.324254 2.1299437,-2.150826 3.4646387,-2.453612 1.3451358,-0.304526 2.7720588,-0.07657 3.9953848,0.709981 0.01914,0.01218 0.04002,0.0261 0.06613,0.0435 0.06612,0.0435 0.01218,0.007 0.04002,0.0261 0.01566,0.01044 0.03132,0.02262 0.04698,0.0348 1.190263,0.82309 1.947228,2.042936 2.187369,3.393292 0.24188,1.357317 -0.03654,2.841665 -0.92402,4.1781 -0.04524,0.06787 -0.0035,0.007 -0.03132,0.04872 -0.0052,0.007 -0.01044,0.01392 -0.01566,0.02088 l -0.0087,0.01392 c -2.364864,3.560347 -3.078325,7.661881 -2.340502,11.444967 0.736084,3.777866 2.918232,7.240764 6.348068,9.534282 v 0 l 0.07657,0.05046 c 3.445497,2.272636 7.484385,2.942594 11.25355,2.154306 3.770905,-0.788288 7.272087,-3.036562 9.636951,-6.596909 l 0.02784,-0.04176 0.01218,-0.01914 c 0.0174,-0.0261 0.0017,-0.0035 0.01566,-0.02436 0.887476,-1.336435 2.147345,-2.169967 3.494221,-2.472753 1.355577,-0.306267 2.794681,-0.07135 4.023227,0.729122 0.05394,0.0348 0.0087,0.0052 0.04176,0.0261 0.02436,0.01566 0.04698,0.03132 0.06613,0.04524 1.200704,0.823091 1.96637,2.051636 2.20825,3.408953 0.238401,1.345136 -0.03828,2.815563 -0.917059,4.141557 -0.01914,0.02784 -0.03654,0.05568 -0.05394,0.07831 -0.0052,0.007 -0.01044,0.01566 -0.01566,0.02262 -3.201876,4.771492 -7.393897,8.298776 -12.092302,10.292987 -4.647941,1.97159 -9.781383,2.441431 -14.937448,1.127618 -0.654296,-0.167055 -1.084113,-0.358471 -1.440844,-0.685619 -0.34977,-0.320188 -0.569029,-0.715202 -0.81613,-1.303373 -0.454179,-1.080633 -1.049311,-2.0934 -1.788874,-3.001759 -0.701281,-0.861374 -1.533072,-1.62704 -2.498856,-2.269155 z m -2.692012,-2.697232 c 1.195483,0.34977 2.347463,0.875295 3.424616,1.590497 1.078893,0.716942 2.009873,1.574836 2.79468,2.538879 0.819611,1.005806 1.479128,2.128203 1.982031,3.323686 0.174015,0.415896 0.313227,0.680399 0.488982,0.840493 0.168795,0.154873 0.433298,0.261022 0.873556,0.372392 4.868939,1.240727 9.713517,0.798728 14.093475,-1.059752 4.460004,-1.893283 8.450168,-5.256993 11.507612,-9.812706 0.0052,-0.01044 0.01218,-0.01914 0.01914,-0.02958 0.01566,-0.02262 0.02958,-0.04524 0.0435,-0.06265 0.680399,-1.024948 0.896177,-2.154305 0.715202,-3.179254 -0.179236,-1.012767 -0.750005,-1.926346 -1.646182,-2.540619 l -0.05046,-0.0348 c -0.05568,-0.03654 0,-0.0017 -0.03132,-0.02088 -0.92054,-0.598612 -1.995952,-0.774367 -3.00872,-0.546407 -1.023208,0.229699 -1.988991,0.873555 -2.678091,1.910684 l -0.0174,0.0261 -0.01044,0.0174 -0.02784,0.04176 c -2.566722,3.864873 -6.37243,6.306303 -10.473963,7.162457 -4.105014,0.857894 -8.505853,0.128771 -12.257617,-2.347462 l -0.07657,-0.05047 v 0 l -0.0035,-0.0017 c -3.737842,-2.497115 -6.116627,-6.2715 -6.918836,-10.388695 -0.800469,-4.111975 -0.0261,-8.565019 2.538879,-12.428152 l 0.01044,-0.01566 c 0.0052,-0.01044 0.01218,-0.01914 0.01914,-0.02958 0.04698,-0.06961 0.0017,0 0.0261,-0.03828 0.687359,-1.035389 0.906618,-2.176928 0.722162,-3.210577 -0.180976,-1.009287 -0.743044,-1.919385 -1.62704,-2.533658 -0.01392,-0.0087 -0.02784,-0.01566 -0.04176,-0.0261 -0.0522,-0.0348 0.01218,0.007 -0.02958,-0.02088 l -0.05046,-0.03306 c -0.915319,-0.588171 -1.982031,-0.760445 -2.9860973,-0.534226 -1.0127673,0.2297 -1.9681097,0.866595 -2.6485083,1.891543 -0.012181,0.0174 -0.026102,0.03828 -0.041764,0.06439 h -0.00174 l -0.00348,0.0052 c -3.0243807,4.592256 -4.5818149,9.583006 -4.5957361,14.438025 -0.013921,4.76105 1.4582457,9.39681 4.489587,13.402635 0.2714634,0.360211 0.4733208,0.560328 0.6838789,0.657777 0.2192589,0.100928 0.5150844,0.12529 0.962303,0.12529 1.2964118,0 2.5858628,0.172275 3.8300698,0.537707 z M 35.86366,4.6331514 C 33.951235,4.1963738 31.875236,4.488719 30.084622,5.614596 c -1.790614,1.1258771 -2.954775,2.8695074 -3.391552,4.778452 -0.436778,1.910685 -0.144433,3.988424 0.981444,5.779038 1.125877,1.790614 2.869507,2.954775 4.778452,3.391552 1.910685,0.436778 3.988424,0.144433 5.779038,-0.981444 1.790615,-1.125877 2.954775,-2.869507 3.391553,-4.778452 0.436777,-1.910685 0.144432,-3.9884238 -0.981445,-5.7790382 v 0 C 39.516235,6.2340895 37.772605,5.0699291 35.86366,4.6331514 Z m 4.155478,16.7924476 c 0.981445,-0.616013 1.832378,-1.362538 2.556281,-2.20651 0.760445,-0.887477 1.379939,-1.884583 1.8637,-2.954775 0.261023,-0.58121 0.490723,-0.972744 0.850934,-1.284231 0.360211,-0.313227 0.795248,-0.494202 1.458245,-0.645595 5.189128,-1.183302 10.308649,-0.586431 14.902645,1.500009 4.656641,2.116022 8.766876,5.758156 11.848681,10.621876 0.007,0.01044 0.01392,0.02262 0.02088,0.0348 l 0.0261,0.04002 c 0.845713,1.346876 1.085854,2.824263 0.81265,4.165919 -0.274943,1.352097 -1.070192,2.558021 -2.290037,3.349789 -0.02958,0.01914 -0.05221,0.03306 -0.06787,0.0435 -0.02784,0.0174 0.007,-0.0052 -0.04176,0.0261 -1.251168,0.770886 -2.693753,0.969263 -4.040629,0.629934 -1.338175,-0.337589 -2.577162,-1.202443 -3.429835,-2.55976 -0.01218,-0.01914 0,0 -0.02958,-0.05047 -0.0052,-0.0087 -0.01044,-0.01566 -0.01392,-0.02436 l -0.0087,-0.01218 h -0.0017 c -2.274376,-3.617772 -5.718133,-5.953053 -9.468156,-6.837049 -3.748283,-0.882256 -7.804573,-0.314967 -11.307495,1.870661 -0.01218,0.007 -0.02436,0.01392 -0.03654,0.02088 v 0 l -0.03828,0.02436 c -3.489001,2.20651 -5.758157,5.613724 -6.589948,9.374188 -0.831792,3.762204 -0.221,7.879399 2.053377,11.497171 l 0.02262,0.03654 v 0 c 0.01392,0.02262 -0.0017,-0.0035 0.03132,0.04872 0.852674,1.357317 1.094555,2.848626 0.817871,4.200722 -0.278424,1.362538 -1.084114,2.578903 -2.31788,3.368931 -0.02436,0.01566 0.01218,-0.0087 -0.04176,0.0261 -0.01566,0.01044 -0.007,0.0035 -0.06787,0.04176 v 0.0017 c -1.244207,0.756965 -2.67635,0.950122 -4.011045,0.612533 -1.327735,-0.335849 -2.554541,-1.193743 -3.401994,-2.538879 -0.007,-0.01044 -0.0087,-0.01392 -0.04698,-0.07657 l -0.0017,0.0017 C 26.985415,48.886906 25.487146,43.605551 25.600255,38.49299 c 0.11311,-5.048175 1.794095,-9.922335 5.110821,-14.083034 0.424596,-0.532486 0.776107,-0.845713 1.214625,-1.035389 0.431557,-0.186196 0.883996,-0.222739 1.522631,-0.205338 1.171121,0.02958 2.338761,-0.09745 3.473339,-0.398494 1.073673,-0.285385 2.114282,-0.729123 3.095727,-1.345136 z m 3.565568,-1.343396 c -0.80743,0.943161 -1.759292,1.776693 -2.857327,2.467533 -1.099775,0.690839 -2.263935,1.186782 -3.464638,1.50523 -1.252908,0.332368 -2.54584,0.47332 -3.842252,0.440258 -0.447218,-0.01218 -0.744784,0.0052 -0.967523,0.102668 -0.214038,0.09223 -0.419376,0.288865 -0.70128,0.640376 -3.13053,3.927518 -4.719287,8.524994 -4.825436,13.282565 -0.10789,4.855018 1.324254,9.884052 4.232044,14.551134 l -0.0017,0.0017 0.0035,0.007 c 0.01218,0.01914 0.0017,0.0035 0.04002,0.06264 0.654296,1.04235 1.593977,1.701867 2.601524,1.957669 0.998846,0.252321 2.069039,0.107889 2.998279,-0.45592 v 0.0017 l 0.0017,-0.0017 c 0.02436,-0.01566 -0.007,0.0035 0.04872,-0.03132 0.02958,-0.01914 -0.0174,0.01044 0.03132,-0.02088 0.92576,-0.593391 1.527852,-1.500009 1.734929,-2.516257 0.210558,-1.028429 0.02088,-2.173447 -0.642115,-3.227978 -0.01392,-0.02262 0.007,0.01218 -0.0261,-0.03828 v 0 l -0.02958,-0.04698 c -2.467532,-3.927518 -3.128789,-8.399704 -2.225652,-12.490796 0.904878,-4.094573 3.377632,-7.808053 7.176379,-10.2112 l 0.03828,-0.02436 v 0 c 0.01392,-0.01044 0.02784,-0.01914 0.04176,-0.02784 3.812668,-2.380525 8.229169,-2.998278 12.309821,-2.037716 4.078912,0.960563 7.821974,3.495962 10.289507,7.42348 h -0.0017 l 0.0087,0.01566 c 0.007,0.01044 0.01392,0.02088 0.02088,0.03132 0.01218,0.02088 -0.0052,-0.0087 0.02436,0.04002 0.661257,1.052791 1.611379,1.721008 2.629367,1.97681 1.009287,0.254062 2.08818,0.106149 3.0209,-0.4681 0.02436,-0.01392 -0.02088,0.01218 0.03132,-0.02088 l 0.05221,-0.03306 c 0.913578,-0.591651 1.50697,-1.494789 1.712307,-2.502336 0.207078,-1.017987 0.01914,-2.150825 -0.635155,-3.193175 l -0.01914,-0.02958 c -0.0087,-0.01218 -0.01914,-0.0261 -0.02784,-0.04002 -2.942593,-4.64446 -6.85271,-8.116059 -11.270951,-10.122452 -4.336454,-1.96985 -9.16885,-2.533659 -14.063892,-1.416482 -0.438518,0.100928 -0.704761,0.200117 -0.880516,0.35499 -0.177496,0.154874 -0.321928,0.415896 -0.506384,0.826571 -0.532486,1.181562 -1.219845,2.284817 -2.065558,3.273223 z" />
</svg>
